<?xml version="1.0" standalone="no"?>
<!DOCTYPE svg PUBLIC "-//W3C//DTD SVG 20010904//EN"
 "http://www.w3.org/TR/2001/REC-SVG-20010904/DTD/svg10.dtd">
<svg version="1.0" xmlns="http://www.w3.org/2000/svg"
 width="600.000000pt" height="600.000000pt" viewBox="0 0 600.000000 600.000000"
 preserveAspectRatio="xMidYMid meet">
<metadata>
Created by potrace 1.14, written by Peter Selinger 2001-2017
</metadata>
<g transform="translate(0.000000,600.000000) scale(0.100000,-0.100000)"
fill="#000000" stroke="none">
<path d="M2037 4463 c-15 -7 -27 -17 -28 -21 0 -4 -3 -16 -5 -27 -16 -64 -7
-109 32 -162 26 -35 70 -60 96 -55 23 5 41 56 43 132 3 67 -8 111 -30 130 -20
17 -79 19 -108 3z"/>
<path d="M2118 4083 c-27 -33 -62 -144 -75 -238 -8 -52 -7 -373 0 -405 6 -24
18 -115 19 -135 0 -5 -5 -50 -12 -100 -39 -270 1 -565 102 -773 28 -57 55
-108 62 -115 6 -7 24 -30 41 -52 59 -80 186 -195 247 -224 18 -8 36 -20 40
-26 4 -5 8 -6 8 -1 0 4 10 2 23 -6 12 -8 45 -20 72 -28 28 -7 56 -18 63 -23 7
-5 15 -7 18 -4 3 3 21 1 40 -4 74 -21 194 -32 344 -32 114 0 245 9 260 18 6 4
48 14 80 19 41 7 100 30 100 39 0 6 2 8 6 5 10 -10 153 72 198 113 11 11 24
19 30 19 5 0 7 2 4 5 -3 3 11 23 32 43 48 47 121 152 114 163 -3 5 -1 9 4 9
10 0 42 64 42 85 0 8 5 15 10 15 6 0 10 6 9 13 -1 6 1 19 4 27 21 47 43 130
36 131 -13 2 -28 6 -34 9 -3 1 -9 4 -15 5 -5 1 -11 3 -12 5 -4 2 -41 11 -55
12 -7 1 -13 4 -13 8 0 4 -6 7 -12 8 -18 1 -33 5 -118 32 -41 13 -82 25 -90 26
-8 1 -34 9 -58 18 -23 8 -46 16 -50 17 -14 3 -37 11 -59 20 -18 7 -25 4 -33
-11 -6 -11 -9 -20 -6 -20 7 0 -34 -113 -46 -127 -6 -7 -7 -13 -4 -13 4 0 -2
-13 -14 -30 -12 -17 -19 -30 -16 -30 2 0 -12 -19 -32 -41 -35 -38 -122 -106
-122 -95 0 3 -12 1 -27 -5 -72 -29 -196 -28 -278 1 -33 11 -66 22 -72 23 -7 2
-26 15 -41 30 -16 15 -31 25 -35 22 -4 -3 -5 -2 -3 1 5 6 -3 18 -35 54 -20 21
-57 125 -64 178 -15 105 -17 136 -18 247 -1 222 24 339 91 438 36 51 89 100
135 123 17 9 38 21 45 27 18 14 63 20 147 20 92 0 110 -3 175 -35 68 -33 128
-92 160 -155 25 -50 27 -53 29 -78 1 -15 30 -15 81 0 8 2 29 7 45 10 17 2 41
7 55 11 14 3 34 7 45 9 11 1 49 10 85 18 36 9 101 24 145 34 44 9 83 18 88 19
4 1 11 2 17 3 19 2 -52 168 -115 266 -50 78 -165 193 -237 239 -31 20 -60 36
-63 36 -3 0 -24 9 -48 20 -47 21 -168 55 -237 65 -61 10 -384 12 -440 3 -25
-4 -69 -12 -98 -18 -30 -7 -59 -13 -65 -14 -7 -1 -17 -5 -23 -8 -6 -4 -26 -10
-44 -13 -18 -3 -37 -8 -42 -11 -24 -15 -180 -21 -248 -10 -61 10 -137 53 -173
98 -34 42 -47 46 -69 21z"/>
</g>
</svg>
